<!DOCTYPE svg PUBLIC "-//W3C//DTD SVG 1.1//EN" "http://www.w3.org/Graphics/SVG/1.1/DTD/svg11.dtd">
<!-- Uploaded to: SVG Repo, www.svgrepo.com, Transformed by: SVG Repo Mixer Tools -->
<svg fill="#000000" width="800px" height="800px" viewBox="0 0 512 512" version="1.1" xml:space="preserve" xmlns="http://www.w3.org/2000/svg" xmlns:xlink="http://www.w3.org/1999/xlink">
<g id="SVGRepo_bgCarrier" stroke-width="0"/>
<g id="SVGRepo_tracerCarrier" stroke-linecap="round" stroke-linejoin="round"/>
<g id="SVGRepo_iconCarrier"> <g id="_x33_69_x2C__system_x2C__monitoring_x2C__checklist_x2C__Good_x2C__OK"> <g> <path d="M351.702,184.465V301.52c0,2.079-1.681,3.761-3.761,3.761H191.604 c-2.079,0-3.76-1.682-3.76-3.761v-22.408h-15.5c-2.08,0-3.761-1.682-3.761-3.76V169.943c0-2.078,1.681-3.76,3.761-3.76h175.597 c2.08,0,3.761,1.682,3.761,3.76v14.338v0.092V184.465z M425.377,138.455H94.909v194.583h330.468V138.455z M344.182,173.704 H176.104v97.887h11.739v-87.218c0-2.078,1.681-3.761,3.76-3.761h152.578V173.704z M195.365,275.443v22.316h148.817V188.133 H195.365v87.219V275.443z M460.779,340.559h-0.093h-31.458H91.057H59.6h-0.107H34.287v20.666c0,4.983,3.439,9.721,8.254,13.391 c5.838,4.494,13.557,7.306,19.962,7.306h395.278c6.389,0,14.124-2.844,19.964-7.306c4.813-3.67,8.238-8.407,8.238-13.391 l0.015-20.666H460.779z M330.822,155.819c-2.063,0-3.76-1.681-3.76-3.759c0-2.049,1.696-3.761,3.76-3.761h33.139 c2.08,0,3.761,1.712,3.761,3.761v24.67c0,2.079-1.681,3.76-3.761,3.76c-2.063,0-3.76-1.681-3.76-3.76v-20.911H330.822z M184.939,148.3c2.078,0,3.761,1.712,3.761,3.761c0,2.078-1.683,3.759-3.761,3.759H155.56v20.911c0,2.079-1.681,3.76-3.759,3.76 c-2.063,0-3.761-1.681-3.761-3.76v-24.67c0-2.049,1.697-3.761,3.761-3.761H184.939z M330.822,325.487 c-2.063,0-3.76-1.681-3.76-3.761c0-2.078,1.696-3.76,3.76-3.76h29.379v-20.91c0-2.079,1.696-3.76,3.76-3.76 c2.08,0,3.761,1.681,3.761,3.76v24.67c0,2.08-1.681,3.761-3.761,3.761H330.822z M184.939,317.967c2.078,0,3.761,1.682,3.761,3.76 c0,2.08-1.683,3.761-3.761,3.761h-33.138c-2.063,0-3.761-1.681-3.761-3.761v-24.67c0-2.079,1.697-3.76,3.761-3.76 c2.078,0,3.759,1.681,3.759,3.76v20.91H184.939z M214.409,241.449c-0.977-1.835-0.305-4.098,1.499-5.075 c1.833-1.009,4.095-0.337,5.09,1.497l15.208,27.789l83.688-52.674c1.756-1.1,4.065-0.55,5.166,1.193 c1.1,1.742,0.564,4.066-1.178,5.166l-87.264,54.905c-1.819,0.979-4.095,0.306-5.09-1.499L214.409,241.449z M111.539,82.816 c2.079,0,3.76,1.682,3.76,3.761s-1.681,3.761-3.76,3.761h-63.25v76.457c0,2.078-1.681,3.76-3.761,3.76 c-2.063,0-3.76-1.682-3.76-3.76V86.577c0-2.079,1.697-3.761,3.76-3.761H111.539z M41.38,411.208c-2.079,0-3.76-1.683-3.76-3.761 s1.681-3.76,3.76-3.76h295.251c2.079,0,3.76,1.682,3.76,3.76s-1.681,3.761-3.76,3.761H41.38z M214.272,429.184 c-2.063,0-3.745-1.683-3.745-3.761s1.681-3.761,3.745-3.761h204.32c2.077,0,3.759,1.683,3.759,3.761s-1.682,3.761-3.759,3.761 H214.272z M439.501,429.184c-2.079,0-3.76-1.683-3.76-3.761s1.681-3.761,3.76-3.761h25.542c2.08,0,3.761,1.683,3.761,3.761 s-1.681,3.761-3.761,3.761H439.501z M29.762,428.633c-2.078,0-3.76-1.682-3.76-3.76c0-2.08,1.683-3.761,3.76-3.761h96.803 c2.079,0,3.76,1.681,3.76,3.761c0,2.078-1.681,3.76-3.76,3.76H29.762z M260.143,130.936h168.979c2.079,0,3.761,1.682,3.761,3.76 v198.343h24.043V119.625c0-3.669-1.497-7.032-3.913-9.447c-2.414-2.414-5.776-3.913-9.445-3.913H76.719 c-3.683,0-7.031,1.499-9.446,3.913c-2.416,2.415-3.913,5.778-3.913,9.447v213.413h24.044V134.695c0-2.078,1.681-3.76,3.745-3.76 H260.143z" style="fill-rule:evenodd;clip-rule:evenodd;"/> </g> </g> <g id="Layer_1"/> </g>
</svg>